<svg id="bitcoin" xmlns="http://www.w3.org/2000/svg" width="22" height="22" viewBox="0 0 22 22">
  <path id="Path_13228" data-name="Path 13228" d="M27,16a11.009,11.009,0,1,1-4.065-8.533A11,11,0,0,1,27,16Z" transform="translate(-5 -5)" fill="#f4c85b"/>
  <circle id="Ellipse_4956" data-name="Ellipse 4956" cx="9.679" cy="9.679" r="9.679" transform="translate(1.319 1.325)" fill="#efb250"/>
  <path id="Path_68824" data-name="Path 68824" d="M6.94,5.84a2.006,2.006,0,0,0-.6-.521,2.546,2.546,0,0,0-.6-.256,2.127,2.127,0,0,0,.9-.782,1.95,1.95,0,0,0,.3-1.036,2.107,2.107,0,0,0-.336-1.13,2.03,2.03,0,0,0-.929-.8,3.354,3.354,0,0,0-1.122-.246V0H3.429V1.052H2.86V0H1.736V1.052H1.258v0H0V2.059H.887V8.612H0V9.621H.887v0h.849v1.055H2.86V9.624h.569v1.055H4.556V9.616a4.984,4.984,0,0,0,.983-.136,2.593,2.593,0,0,0,.937-.422,2.168,2.168,0,0,0,.628-.8A2.485,2.485,0,0,0,7.359,7.14,2.1,2.1,0,0,0,6.94,5.84ZM2.021,2.064H3.733a4.848,4.848,0,0,1,1.3.12,1.033,1.033,0,0,1,.585.443,1.384,1.384,0,0,1,.206.753,1.228,1.228,0,0,1-.219.748,1.209,1.209,0,0,1-.652.427,4.126,4.126,0,0,1-1.081.1H2.021Zm3.992,5.8a1.21,1.21,0,0,1-.433.475,1.867,1.867,0,0,1-.654.235,5.033,5.033,0,0,1-.772.04H2.021V5.666H4a4.317,4.317,0,0,1,1.255.142,1.435,1.435,0,0,1,.454.248,1.279,1.279,0,0,1,.227.251,1.427,1.427,0,0,1,.246.833A1.5,1.5,0,0,1,6.014,7.861Z" transform="matrix(0.966, 0.259, -0.259, 0.966, 8.825, 4.893)" fill="#fff"/>
</svg>
