<svg xmlns="http://www.w3.org/2000/svg" width="23.22" height="18" viewBox="0 0 23.22 18">
  <path id="Path_73189" data-name="Path 73189" d="M13.61,5A11.61,11.61,0,0,0,3.556,22.415a1.165,1.165,0,1,0,2.02-1.161A9.2,9.2,0,0,1,4.322,16.61a9.288,9.288,0,1,1,17.334,4.644,1.16,1.16,0,1,0,2.009,1.161A11.61,11.61,0,0,0,13.61,5Zm3.3,6.687-1.8,1.788a3.379,3.379,0,0,0-1.5-.348,3.483,3.483,0,1,0,3.483,3.483,3.367,3.367,0,0,0-.348-1.486l1.8-1.788a1.162,1.162,0,0,0-1.637-1.649Zm-3.3,6.084a1.166,1.166,0,1,1,1.161-1.161A1.161,1.161,0,0,1,13.61,17.771Z" transform="translate(-2 -5)" fill="#1d3c48"/>
</svg>
