<svg id="Group_24749" data-name="Group 24749" xmlns="http://www.w3.org/2000/svg" width="22" height="22" viewBox="0 0 22 22">
  <path id="Path_68073" data-name="Path 68073" d="M832.861,914.6a1.053,1.053,0,0,0-.3-.3c-.878-.6-3.079-.89-5.045-.977v-1.558h3.808v-2.5H821.2v2.5h3.809v1.558c-1.965.087-4.166.381-5.045.977a1.053,1.053,0,0,0-.3.3.526.526,0,0,0-.088.288c0,1,2.913,1.449,5.437,1.561v5.2h2.5v-5.2c2.524-.112,5.437-.566,5.437-1.561A.526.526,0,0,0,832.861,914.6Zm-.3.3c-.024.432-1.949,1.032-5.045,1.162-.4.018-.816.026-1.25.026s-.852-.009-1.249-.026c-3.1-.13-5.02-.73-5.045-1.162a.03.03,0,0,1,0-.009c0-.09.083-.188.244-.288a12.263,12.263,0,0,1,4.8-.884v1.768q.6.027,1.249.026c.435,0,.853-.009,1.25-.026v-1.768a12.263,12.263,0,0,1,4.8.884c.161.1.244.2.244.288A.027.027,0,0,1,832.557,914.9Z" transform="translate(-815.262 -903.922)" fill="#f6f6f6"/>
  <g id="Group_23690" data-name="Group 23690">
    <path id="Path_68074" data-name="Path 68074" d="M865.8,1294.841a12.26,12.26,0,0,0-4.8-.884v1.768c-.4.018-.816.026-1.25.026s-.852-.009-1.25-.026v-1.768a12.26,12.26,0,0,0-4.8.884c-.161.1-.244.2-.244.288a.027.027,0,0,0,0,.009c.025.432,1.948,1.032,5.045,1.162q.6.026,1.25.026c.435,0,.853-.009,1.25-.026,3.1-.13,5.02-.73,5.045-1.162a.027.027,0,0,0,0-.009C866.044,1295.039,865.961,1294.941,865.8,1294.841Z" transform="translate(-848.749 -1284.16)" fill="#53ae94"/>
    <path id="Path_68075" data-name="Path 68075" d="M457.532,446.532a11,11,0,1,0,11,11A11,11,0,0,0,457.532,446.532Zm1.25,12.53v5.2h-2.5v-5.2c-2.524-.112-5.437-.565-5.437-1.561a.525.525,0,0,1,.088-.288,1.051,1.051,0,0,1,.3-.3c.878-.6,3.079-.89,5.045-.977v-1.558h-3.809v-2.5H462.59v2.5h-3.808v1.558c1.965.087,4.166.382,5.045.977a1.051,1.051,0,0,1,.3.3.526.526,0,0,1,.088.288C464.219,458.5,461.306,458.95,458.782,459.062Z" transform="translate(-446.532 -446.532)" fill="#53ae94"/>
  </g>
</svg>
