<svg id="Group_24749" data-name="Group 24749" xmlns="http://www.w3.org/2000/svg" width="18" height="18" viewBox="0 0 18 18">
  <path id="Path_68073" data-name="Path 68073" d="M830.446,913.634a.862.862,0,0,0-.249-.243,10.114,10.114,0,0,0-4.127-.8v-1.275h3.116v-2.045h-8.277v2.045h3.116v1.275a10.1,10.1,0,0,0-4.128.8.86.86,0,0,0-.249.243.43.43,0,0,0-.072.235c0,.815,2.383,1.186,4.449,1.277V919.4h2.045v-4.257c2.065-.091,4.449-.463,4.449-1.277A.43.43,0,0,0,830.446,913.634Zm-.249.243c-.02.353-1.594.844-4.127.951-.325.014-.667.021-1.023.021s-.7-.007-1.022-.021c-2.533-.107-4.107-.6-4.128-.951a.025.025,0,0,1,0-.007c0-.074.068-.154.2-.235a10.032,10.032,0,0,1,3.929-.723v1.447q.488.022,1.022.022c.356,0,.7-.007,1.023-.022v-1.447a10.032,10.032,0,0,1,3.929.723c.131.082.2.162.2.235A.022.022,0,0,1,830.2,913.877Z" transform="translate(-816.046 -904.895)" fill="#f6f6f6"/>
  <g id="Group_23690" data-name="Group 23690">
    <path id="Path_68074" data-name="Path 68074" d="M863.555,1294.681a10.03,10.03,0,0,0-3.929-.724v1.447c-.325.014-.667.021-1.023.021s-.7-.007-1.022-.021v-1.447a10.029,10.029,0,0,0-3.929.724c-.131.082-.2.162-.2.235a.022.022,0,0,0,0,.007c.02.353,1.594.844,4.127.951q.488.021,1.022.021c.356,0,.7-.007,1.023-.021,2.533-.107,4.107-.6,4.127-.951a.022.022,0,0,0,0-.007C863.755,1294.842,863.687,1294.762,863.555,1294.681Z" transform="translate(-849.604 -1285.941)" fill="#53ae94"/>
    <path id="Path_68075" data-name="Path 68075" d="M455.532,446.532a9,9,0,1,0,9,9A9,9,0,0,0,455.532,446.532Zm1.023,10.252v4.257h-2.045v-4.257c-2.065-.091-4.449-.462-4.449-1.277a.43.43,0,0,1,.072-.236.86.86,0,0,1,.249-.243,10.1,10.1,0,0,1,4.127-.8v-1.275h-3.116v-2.045h8.277v2.045h-3.116v1.275a10.113,10.113,0,0,1,4.127.8.86.86,0,0,1,.249.243.43.43,0,0,1,.072.236C461,456.321,458.62,456.692,456.555,456.784Z" transform="translate(-446.532 -446.532)" fill="#53ae94"/>
  </g>
</svg>
